<svg version="1.2" xmlns="http://www.w3.org/2000/svg" viewBox="0 0 520 520" width="520" height="520">
	<title>favicon-light</title>
	<style>
		.s0 { opacity: .98;fill: #030303 } 
	</style>
	<g id="Background">
		<path id="Path 0" fill-rule="evenodd" class="s0" d="m1.11 2.78c0.62 0.03 5.13 3.66 10.03 8.06 4.9 4.4 23.29 20.77 40.85 36.37 18.84 16.74 33.16 28.38 34.91 28.38 1.63 0 9.99-3.09 18.57-6.87 8.58-3.78 20.94-9.2 27.48-12.04 6.53-2.84 12.55-5.68 13.37-6.32 0.81-0.64 8.5-4.36 17.08-8.28 8.58-3.91 17.94-7.71 20.8-8.44 2.86-0.73 16.56-1.94 30.45-2.7 13.89-0.76 88.25-1.9 305.26-3.7v28.97l-321.6 0.74-14.11 6.47c-7.76 3.57-30.16 13.69-49.77 22.51-19.6 8.81-37.99 16.77-40.85 17.69-2.86 0.91-6.87 1.65-8.91 1.65-2.04 0-6.49-1.85-9.88-4.11-3.4-2.26-9.75-6.86-14.11-10.22-4.37-3.36-16.25-13.73-26.41-23.02-10.15-9.3-21.97-19.92-34.08-30.28l-0.09-17.46c-0.06-9.6 0.4-17.43 1.01-17.4zm225.42 111.55l70.56 0.12c38.81 0.06 104.65 0.52 222.08 1.92v28.22l-91.36 0.9c-50.24 0.49-116.75 1-204.25 1.34l-17.08 10.12c-9.4 5.56-31.96 18.26-50.14 28.22-18.17 9.95-34.88 18.53-37.13 19.07-3.47 0.82-7.68-1.4-27.85-14.68-13.08-8.61-26.11-16.8-28.97-18.2-3.23-1.58-6.61-2.17-8.91-1.56-2.05 0.54-11.4 5.44-20.8 10.89-9.4 5.45-19.92 12.09-23.4 14.76-3.47 2.66-6.98 4.85-7.79 4.85-0.93 0-1.35-6.03-0.75-31.72l10.4-6.23c5.72-3.43 17.92-10.66 27.11-16.08 9.19-5.42 18.05-9.85 19.68-9.85 1.64 0 12.83 6.59 24.88 14.65 12.06 8.05 24.09 15.74 26.74 17.08 2.66 1.34 5.5 2.44 6.32 2.44 0.81 0 9.34-3.62 18.94-8.03 9.6-4.42 34.16-17.08 54.59-28.13zm20.79 89.09l272.58-0.16v26.74l-265.15 0.01-8.17 5.83c-4.49 3.21-12.52 8.89-17.83 12.62-5.31 3.74-15.33 10.77-22.28 15.62-6.94 4.86-21.98 15.16-33.42 22.88-11.44 7.73-26.81 18.22-34.17 23.32-7.35 5.09-16.71 10.95-28.22 16.76l-5.94-3.36c-3.27-1.85-11.63-7.34-18.57-12.2-6.94-4.86-18.98-13.24-26.74-18.62-7.76-5.37-14.78-10.04-15.6-10.38-0.81-0.33-7.5 3.33-14.85 8.12-7.35 4.8-16.88 10.51-28.97 16.65v-16.34c0-9.91 0.59-16.34 1.49-16.34 0.82 0 6.33-3.23 12.25-7.18 5.93-3.94 13.95-8.96 17.83-11.14 3.88-2.18 8.23-3.94 9.66-3.92 1.42 0.03 6.61 2.49 11.51 5.46 4.9 2.98 11.58 7.21 14.85 9.4 3.27 2.2 14.3 9.2 24.51 15.56 15.35 9.55 19.08 11.3 21.54 10.08 1.64-0.82 10.99-6.68 20.8-13.04 9.8-6.36 21.17-13.88 25.25-16.73 4.09-2.84 12.78-8.78 19.31-13.21 6.54-4.42 24.59-16.68 40.11-27.24zm26.74 81.58l245.83 0.71 0.01 30.45h-237.67l-27.11 19.36c-14.91 10.64-29.09 20.83-31.51 22.65-2.41 1.81-22.26 16.67-44.11 33.01-21.84 16.34-45.21 33.72-51.93 38.62-6.71 4.9-15.27 11.21-19.02 14.01-3.74 2.8-10.98 7.98-16.09 11.51-5.11 3.53-10.79 6.4-12.63 6.38-1.84-0.02-7.68-2.44-12.99-5.38-5.32-2.94-22.51-13.45-66.78-41.38l-0.04-15.96c-0.02-8.79 0.3-15.97 0.71-15.97 0.41 0 2.92 1.6 5.57 3.57 2.66 1.96 13.52 8.75 24.14 15.07 10.62 6.33 24.99 15.4 31.94 20.16 6.94 4.76 13.8 8.67 15.23 8.69 1.42 0.03 4.1-0.72 5.94-1.66 1.84-0.93 5.77-3.77 8.75-6.31 2.97-2.54 9.65-7.78 14.85-11.65 5.2-3.86 17.8-13.25 28.02-20.86 10.21-7.61 27.25-20.36 37.88-28.33 10.62-7.98 31.58-23.99 46.58-35.59 15-11.59 33.38-25.58 40.85-31.09zm245.1 88.35l0.83 28.22-225.13 0.96-3.89 3.23c-2.14 1.78-11.74 10.26-21.33 18.84-9.59 8.58-20.17 17.94-23.51 20.79-3.34 2.86-9.79 8.59-14.33 12.73-4.53 4.14-13.65 12.17-20.25 17.83-6.6 5.66-20.14 17.48-48.16 42.23l-43.82 0.03 4.74-4.1c2.6-2.25 12.21-10.45 21.36-18.21 9.14-7.76 23.35-20.13 31.56-27.48 8.21-7.35 25-22.28 37.31-33.17 12.31-10.89 30.07-26.66 39.47-35.04 9.39-8.38 19.59-17.35 28.22-24.63l40.48-1.25c22.26-0.69 75.57-1.2 196.45-0.98zm0 86.16l0.74 27.48-103.61-0.03c-81.4-0.02-104.12 0.38-106.01 1.86-1.32 1.03-7.83 8.06-26.56 29.36h-37.14l12.25-13.63c6.74-7.5 18.51-20.37 40.03-43.56l49.99-0.78c27.49-0.43 77.06-0.76 170.31-0.7z"/>
	</g>
</svg>