<svg version="1.2" xmlns="http://www.w3.org/2000/svg" viewBox="0 0 520 520" width="520" height="520">
	<title>favicon-light</title>
	<style>
		.s0 { fill: #ffffff } 
	</style>
	<g id="Background">
		<path id="Path 0" class="s0" d="m0.45 2.69c-0.43 0.36-0.69 8.56-0.58 18.23l0.2 17.58c6.52 5.42 17.43 15.1 28.45 25 11.02 9.9 22.72 20.29 26.01 23.09 3.28 2.8 9.12 7.38 12.97 10.18 3.85 2.79 9.14 6.01 11.75 7.15 3.96 1.74 5.54 1.93 9.5 1.16 2.61-0.51 7-1.81 9.75-2.89 2.75-1.08 10.85-4.52 18-7.65 7.15-3.12 14.35-6.28 16-7.02 1.65-0.73 6.6-2.99 11-5.02 4.4-2.03 18.8-8.58 32-14.56l24-10.88 320.5-0.06v-30c-23.64-0.01-76.85 0.45-133.5 1.02-56.65 0.57-121 1.46-143 1.98-22 0.53-44.5 1.45-50 2.05-7.97 0.87-12.23 2-21 5.59-6.05 2.48-15.95 7-22 10.03-6.05 3.04-20.45 9.69-32 14.79-11.55 5.1-23.36 10-26.25 10.9-3.76 1.18-5.82 1.36-7.25 0.64-1.1-0.55-5.94-4.29-10.75-8.32-4.81-4.02-15.07-12.91-22.79-19.75-7.73-6.83-20.35-18.05-28.05-24.93-7.71-6.87-15.85-13.95-18.1-15.72-2.25-1.78-4.44-2.94-4.86-2.59zm203.05 123.32c-12.1 6.68-32.35 17.46-45 23.96-12.65 6.5-27.5 13.74-33 16.09-9.03 3.87-10.29 4.16-13 3.07-1.65-0.66-9.75-5.62-18-11.01-8.25-5.39-17.93-11.61-21.5-13.83-3.58-2.22-8.4-5.1-10.72-6.41l-4.21-2.38c-9.74 4.52-14.6 7.04-17.07 8.51-2.48 1.47-12.73 7.59-22.8 13.59l-18.29 10.9c0.07 25.2 0.49 31.7 1.09 32 0.55 0.28 2.24-0.27 3.75-1.22 1.51-0.95 4.32-2.93 6.25-4.4 1.92-1.47 9.35-6.17 16.5-10.44 7.15-4.27 16.04-9.27 19.75-11.1 3.71-1.84 7.76-3.35 9-3.36 1.24-0.02 4.27 1.04 6.75 2.34 2.47 1.3 14.4 8.75 26.5 16.55 12.1 7.8 23.57 14.7 25.5 15.32 3.32 1.08 4.23 0.77 18-6.16 7.97-4.01 24.4-12.81 36.5-19.56 12.1-6.74 27.62-15.53 34.5-19.52 6.87-3.99 14.3-8.26 16.5-9.48l4-2.24c169.72-0.96 236.21-1.58 257.25-1.99l38.25-0.74v-28c-52.31-1.15-118.58-1.75-181-2.07l-113.5-0.58zm28 87.32c-8.25 5.61-23.33 15.87-33.5 22.79-10.18 6.91-23.23 15.84-29 19.83-5.78 3.99-16.8 11.39-24.5 16.45-7.7 5.06-18.16 11.77-23.25 14.9l-9.25 5.71c-8.14-3.81-17.93-9.58-27-15.29-9.08-5.7-20.33-12.85-25-15.89-4.68-3.03-10.41-6.49-12.75-7.67-2.34-1.18-5.15-2.15-6.25-2.15-1.1 0-4.59 1.34-7.75 2.97-3.16 1.63-8.9 4.98-12.75 7.43-3.85 2.46-10.04 6.3-13.75 8.54l-6.75 4.06v33c8.91-4.93 17.8-10.16 25.5-14.8 7.7-4.64 15.01-8.83 16.25-9.32 1.89-0.74 4.3 0.51 15 7.79 7.01 4.77 18.15 12.5 24.75 17.19 6.6 4.68 15.6 10.68 20 13.35 4.4 2.66 8.67 4.83 9.5 4.83 0.82 0 6.67-3.08 13-6.84 6.32-3.77 14.42-8.87 18-11.36 3.57-2.48 20.22-13.89 37-25.37 16.77-11.47 39.72-27.38 51-35.34 11.27-7.96 21.74-15.29 23.25-16.3 2.63-1.75 8.51-1.83 134.75-1.83h132v-27l-273.5 0.1zm35.94 75.92c-3.27 2.33-13.66 10.09-23.1 17.25-9.43 7.16-23.16 17.62-30.5 23.25-7.34 5.62-18.97 14.55-25.84 19.83-6.88 5.29-25.27 19.13-40.89 30.77-15.61 11.64-36.54 27.36-46.5 34.94-10.53 8.01-19.37 14-21.11 14.32-2.32 0.42-4.36-0.3-9-3.21-3.3-2.06-10.28-6.54-15.5-9.94-5.23-3.41-16.7-10.58-25.5-15.95-8.8-5.37-18.59-11.5-21.75-13.63-3.16-2.12-6.2-3.86-6.75-3.86-0.63 0-1 6.16-1 16.5 0 16.1 0.05 16.52 2.25 17.65 1.24 0.64 5.17 3.06 8.75 5.38 3.57 2.32 16.85 10.65 29.5 18.51 12.65 7.86 26.26 15.79 30.25 17.62 3.99 1.84 7.92 3.34 8.75 3.34 0.82 0 3.41-0.97 5.75-2.15 2.34-1.18 7.4-4.27 11.25-6.88 3.85-2.61 12.85-9.07 20-14.36 7.15-5.28 16.82-12.41 21.5-15.84 4.67-3.42 28.07-20.82 52-38.66 23.92-17.85 45.07-33.61 46.99-35.03 1.92-1.42 12.95-9.23 24.5-17.35l21.01-14.76 237.5 0.03v-32h-246.61zm48.05 84.81c-11.55 0.37-23.92 0.75-27.5 0.85l-6.5 0.18c-17.94 15.83-27.64 24.47-33.13 29.42-5.48 4.95-15.09 13.5-21.34 19-6.25 5.5-24.29 21.48-40.09 35.5-15.79 14.03-37.5 32.93-48.25 42-10.74 9.08-19.57 16.84-19.61 17.25-0.04 0.42 9.82 0.75 21.92 0.75h22q18.12-15.69 29.99-26c7.92-6.87 30.85-27.08 50.95-44.91 20.11-17.83 39.71-35.21 43.56-38.63l7-6.22 225.5-1.74v-28.5c-142.21 0.29-192.95 0.68-204.5 1.05zm20.14 85.92l-36.86 0.53c-12.61 13.25-24.38 26.01-34.28 36.9-9.9 10.89-18.11 20.21-18.25 20.7-0.14 0.51 7.85 0.91 18.5 0.91h18.75c23.56-25.99 27.76-29.94 30-30.4 1.65-0.35 48.79-0.96 104.75-1.37l101.75-0.74v-27.5c-114.31 0.34-164.08 0.68-184.36 0.97z"/>
	</g>
</svg>